<svg width="512" height="512" viewBox="0 0 512 512" fill="none" xmlns="http://www.w3.org/2000/svg">
  <rect width="512" height="512" rx="100" fill="#4F46E5"/>
  <path d="M256 120C180.891 120 120 180.891 120 256C120 331.109 180.891 392 256 392C331.109 392 392 331.109 392 256C392 180.891 331.109 120 256 120ZM256 360C198.66 360 152 313.34 152 256C152 198.66 198.66 152 256 152C313.34 152 360 198.66 360 256C360 313.34 313.34 360 256 360Z" fill="white"/>
  <path d="M256 180C214.026 180 180 214.026 180 256C180 297.974 214.026 332 256 332C297.974 332 332 297.974 332 256C332 214.026 297.974 180 256 180ZM256 308C227.282 308 204 284.718 204 256C204 227.282 227.282 204 256 204C284.718 204 308 227.282 308 256C308 284.718 284.718 308 256 308Z" fill="white" opacity="0.5"/>
  <path d="M256 220V292M220 256H292" stroke="white" stroke-width="24" stroke-linecap="round"/>
</svg>
